<?xml version="1.0" encoding="utf-8"?>
<!-- Generator: Adobe Illustrator 17.1.0, SVG Export Plug-In . SVG Version: 6.00 Build 0)  -->
<!DOCTYPE svg PUBLIC "-//W3C//DTD SVG 1.1//EN" "http://www.w3.org/Graphics/SVG/1.1/DTD/svg11.dtd">
<svg version="1.1" id="Layer_1" xmlns="http://www.w3.org/2000/svg" xmlns:xlink="http://www.w3.org/1999/xlink" x="0px" y="0px"
	 width="960px" height="560px" viewBox="0 0 960 560" enable-background="new 0 0 960 560" xml:space="preserve">
<path fill="#E72F34" d="M24.4,20.8l-5.6-5.4c0.9-1.5,1.5-3.3,1.5-5.3C20.3,4.6,15.8,0,10.2,0C4.6,0,0,4.6,0,10.2
	c0,5.6,4.6,10.2,10.2,10.2c1.7,0,3.2-0.4,4.6-1.1l5.8,5.6c1.1,1.1,2.9,1,3.9-0.1C25.5,23.7,25.5,21.9,24.4,20.8z M2.1,10.2
	c0-4.5,3.6-8.1,8.1-8.1c4.5,0,8.1,3.6,8.1,8.1c0,4.5-3.6,8.1-8.1,8.1C5.7,18.2,2.1,14.6,2.1,10.2z"/>
<g>
	<g>
		<path fill="#EB2533" d="M41.1,555.8c2.5-2.5,8.1-6.7,13.5-8.4c6.2-1.9,22.1-4.7,25.8-21c2.9-12.8-2.6-27.2-3.2-33.7
			c-0.6-5.7,1.2-18.6,1.4-20.6c0.4-2.6-2.1-3.6-3.8-3c-2.7,1-8.6,2.9-15.3,3c-7.2,0.1-16.1-5.2-18.4-8.7c-2.3,3.5-11.2,8.8-18.4,8.7
			c-6.7-0.1-12.6-2-15.3-3c-1.6-0.6-4.1,0.4-3.8,3c0.3,2,2,14.9,1.4,20.6c-0.6,6.5-6.2,20.8-3.2,33.7c3.7,16.3,19.7,19.2,25.8,21
			C33,549.1,38.7,553.3,41.1,555.8z"/>
	</g>
	<g>
		<path fill="#FFFFFF" d="M41.1,553.2l-0.3-0.4c-3.2-3.3-9.7-6.6-14-7.7c-12.4-3.3-19.8-8.9-22.5-17.3c-2.8-8.8-0.7-18.4,1-26.2
			c0.6-2.9,1.2-5.6,1.5-8c0.7-5.9-0.7-17.5-1-19c-0.3-1.5-0.4-2.5,0.1-3c0.2-0.3,0.5-0.4,0.9-0.4c0.4,0,0.9,0.1,1.8,0.4
			c2.2,0.8,9.1,2.5,15.3,2.3c5.8-0.2,12.6-3.7,16.9-7.2l0.3-0.2l0.3,0.2c4.3,3.4,11.1,7,16.9,7.2c6.1,0.2,13-1.5,15.3-2.3
			c0.8-0.3,1.4-0.4,1.8-0.4c0.4,0,0.7,0.1,0.9,0.4c0.4,0.5,0.4,1.5,0.1,3c-0.3,1.5-1.7,13.1-1,19c0.3,2.4,0.9,5.1,1.5,8
			c1.7,7.8,3.9,17.4,1,26.2c-2.7,8.4-10.1,14.1-22.5,17.3c-4.2,1.1-10.8,4.4-14,7.7L41.1,553.2z M6.9,472.2c-0.1,0-0.2,0-0.2,0.1
			c-0.2,0.3,0,1.7,0.1,2.2c0.3,1.5,1.7,13.3,1,19.3c-0.3,2.4-0.9,5.2-1.6,8.1c-1.7,7.7-3.8,17.2-1.1,25.7
			c2.6,8.1,9.8,13.5,21.9,16.7c4.2,1.1,10.7,4.3,14.1,7.6c3.4-3.3,9.8-6.5,14.1-7.6c12.1-3.2,19.2-8.6,21.9-16.7
			c2.8-8.5,0.7-18.1-1.1-25.7c-0.6-2.9-1.3-5.7-1.6-8.1c-0.7-6,0.7-17.7,1-19.3c0.1-0.5,0.4-1.9,0.1-2.2c0,0-0.1-0.1-0.2-0.1
			c-0.4,0-1,0.2-1.5,0.4c-2.7,1-9.5,2.6-15.6,2.4c-3.9-0.1-10.7-2.1-17.1-7.1c-6.4,5.1-13.2,7-17.1,7.1c-6.1,0.2-12.9-1.4-15.6-2.4
			C8,472.4,7.3,472.2,6.9,472.2z"/>
	</g>
	<g>
		<path fill="#FFFFFF" d="M43.3,475.7c0.1,0.9,0.3,1.8,0.2,2.7c-0.3-0.7-0.9-1.4-1.7-1.4c-0.9,0-1.7,0.7-2.2,1.5
			c-0.2,1.3-0.1,2.6,0.1,3.9c0.6-0.1,1-0.7,1.6-1c1.3-0.9,3.6-0.2,4.2-2.1l0.1-0.1c0.2,0.5-0.1,1.2-0.3,1.7
			c-1.3,2.3-4.6,0.4-5.7,2.8c0.1,1.6-0.2,3.5,0.2,5c0.3,0.3,0.7,0.2,1,0.1c2.1-0.6,3.4-2.7,3.9-4.7h0.1c-0.1,1.2-0.1,2.5-0.3,3.7
			c-2.4,1.5-4.8,2.9-7.3,4.1c1.2-2.2,0.4-5.1,0.6-7.7c-0.1-1.5-0.1-2.8-0.1-4.4c0-0.3-0.3-0.6-0.6-0.7c-0.3-0.1-0.6-0.1-0.8-0.2
			c0.2-0.3,0.6-0.6,1-0.7c1.8-1.2,3.8-2.1,5.6-3.1C43.3,475,43.1,475.5,43.3,475.7z"/>
	</g>
	<g>
		<path fill="#FFFFFF" d="M70.3,479.9c0.6,1.7,0,3.6-0.1,5.4c-0.5,3.9-0.7,8.2,0.5,11.9c0.1,0.3-0.3,0.3-0.4,0.2
			c-0.9-0.5-1.3-1.6-1.7-2.5c-0.9-1.8-1.5-3.8-2.6-5.5l-0.1,0.2l0.1,8c0.1,0.3,0.4,0.4,0.6,0.6c-0.6,0.7-1.5,1-2.3,1.4
			c0-0.4,0.3-0.7,0.3-1.2c0-4.2,0-8.6-0.2-12.6c-0.2-0.6-0.9-0.7-1.4-0.9c0.7-0.6,1.5-1,2.3-1.4c0.3-0.1,0.6,0.2,0.7,0.4
			c0.8,1.8,1.5,3.6,2.4,5.3c0.1,0,0.1,0,0.2-0.1c0-2.7,0.5-5.4,0.3-8.2c-0.1-0.6-1.2-0.7-0.8-1.4c0.4-0.3,0.8-0.7,1.4-0.6
			C69.8,479.1,70,479.6,70.3,479.9z"/>
	</g>
	<g>
		<path fill="#FFFFFF" d="M34.4,480c-0.1,0.4-0.3,0.8-0.4,1.2l0.1,10.9c0.1,0.3,0,0.6,0.3,0.9l0.5,0.3c-0.7,0.6-1.8,1.2-2.8,1.6
			c0-0.1,0-0.3,0.1-0.3l0.2-0.8l-0.1-5.7c-0.4-0.4-0.8,0.1-1.2,0.3c-0.7,0.5-1.6,0.8-2.1,1.4c0,1.8-0.2,3.8,0.1,5.6
			c0.1,0.4,0.4,0.5,0.8,0.6h0.3c-1,0.8-2.2,1.5-3.4,2c0.2-0.5,0.4-1.1,0.5-1.8l-0.2-10.6c0-0.5-0.6-0.7-0.8-1c0.9-0.7,2-1.3,3.1-1.8
			c-0.8,1.3-0.2,3.4-0.3,5c0,0.1,0.1,0.2,0.1,0.2c1.1-0.3,2-1.1,3-1.6l0.2-0.3l0-3.8c-0.1-0.3-0.3-0.6-0.6-0.6h-0.3
			c0-0.4,0.4-0.3,0.6-0.6C32.8,480.8,33.5,480.1,34.4,480z"/>
	</g>
	<g>
		<path fill="#FFFFFF" d="M24.5,484.2c0.3,1.6,0.1,3.5,0.9,4.9c-1.3-0.7-1-2.2-2.2-3c-0.4-0.1-0.6,0.2-0.7,0.4
			c-0.1,4.4,0.2,8.4,0.3,12.6c0.1,0.3,0.4,0.4,0.6,0.5h0.4c-1.2,0.9-2.6,1.5-3.9,2.2c1.2-1.3,0.6-3.4,0.7-5l-0.1-8.8
			c-0.1-0.2,0-0.5-0.2-0.7c-1.1,0.3-1.1,1.6-1.6,2.5c-0.3,1.3-0.3,2.6-1.4,3.5h-0.1c1-1.8,0.1-4.1,0.7-6c2.1-1.2,4.3-2.6,6.5-3.7
			L24.5,484.2z"/>
	</g>
	<g>
		<path fill="#FFFFFF" d="M62.3,488.5c1.6,3.8,1.4,8.6-0.3,12.3c-0.6,0.9-1.3,2.1-2.5,2.2c-0.9,0.1-1.7-0.2-2.4-0.8
			c-1.8-2.7-2-6.4-1.5-9.6c0.5-2.2,1.3-5.2,4.1-5.6C60.9,486.8,61.7,487.5,62.3,488.5z M59.6,488.3c-1,0.3-1.3,1.4-1.5,2.4
			c-0.5,3.1-0.8,6.8,0.1,9.7c0.3,0.5,0.6,1.5,1.4,1.4c1-0.3,1.1-1.4,1.4-2.2c0.6-3.2,0.7-6.9,0.1-10.1
			C60.7,488.9,60.3,488.3,59.6,488.3z"/>
	</g>
	<g>
		<path fill="#FFFFFF" d="M54.9,489.6c-0.1,0.5-0.4,1.1-0.5,1.7v6.4c0.1,2.2,0,4.6,0.2,6.7c0.2,0.3,0.3,0.4,0.6,0.6l-0.1,0.1
			c-1,0.7-2,1.3-3,1.7c0.5-0.8,0.6-2,0.6-3.2l-0.1-8.7l-0.2-2.9c-0.1-0.3-0.4-0.5-0.6-0.7c0.8-0.7,1.8-1,2.6-1.6
			C54.6,489.8,54.7,489.6,54.9,489.6z"/>
	</g>
	<g>
		<path fill="#FFFFFF" d="M50.8,492.4c0.3,1.6,0.1,3.3,0.3,4.9c-0.7-0.9-0.4-2.3-1.6-2.9c-0.4-0.1-0.7,0.2-0.9,0.5l-0.1,0.4l0,8.1
			l0.1,4.3c0.1,0.4,0.5,0.6,0.8,0.8c-0.8,0.7-1.8,1.3-2.9,1.6l0.3-1.3l0-7l-0.1-5.7c-0.2-0.3-0.5-0.3-0.7,0c-1,1-0.8,2.6-1.5,3.8
			l-0.1,0c0.1-1.2,0-2.6,0-3.8l0.1-0.3c2-1,3.9-2.3,5.9-3.4C50.6,492.1,50.8,492.2,50.8,492.4z"/>
	</g>
	<g>
		<path fill="#FFFFFF" d="M38.8,499.1c-0.5,0.9-0.5,1.9-0.7,2.9l-0.5,2.6l-1.3,7.4c-0.7,1.9-0.3,4.3-1.8,5.7c0-1.3-0.4-2.4-0.6-3.5
			l-2-7.7c-0.2-1-0.5-2.2-1.6-2.5V504c1.1-0.6,2.1-1.5,3.4-1.9c-0.5,0.6-0.3,1.5-0.3,2.2c0.4,2.1,1,4.2,1.5,6.3
			c0.1,0,0.2,0.1,0.2,0.1c0.5-1.8,0.7-3.8,1-5.6c0.1-1.2,0.7-2.6,0.1-3.8c-0.1-0.2-0.3-0.3-0.5-0.3c0.9-0.7,1.9-1.3,2.9-1.8
			L38.8,499.1L38.8,499.1L38.8,499.1z"/>
	</g>
	<g>
		<path fill="#FFFFFF" d="M68.8,504.8c0.3,0.6,0.3,1.5,0,2.2c-1,3.1-2.3,6-3.4,9c0,1.5-0.1,3.3,0.1,4.9c0,0.3,0.4,0.5,0.6,0.7
			c-1,0.8-2.2,1.3-3.2,2c0.2-0.6,0.6-1.2,0.6-1.9c0-1.8,0-3.7-0.2-5.4c-0.9-1.9-1.8-3.8-2.9-5.7l-0.7-0.5c1-0.7,2-1.4,3.2-1.8
			c-0.2,0.7-0.6,1.8-0.1,2.5c0.6,1.1,0.9,2.2,1.6,3.3c0.3,0.1,0.3-0.3,0.5-0.5c0.7-2.4,2-4.4,2.3-6.9c0-0.9-0.4-1.7-1.2-2
			c-0.1-0.1,0-0.3,0.1-0.4c0.6-0.4,1.5-0.4,2.1,0C68.6,504.2,68.7,504.6,68.8,504.8z"/>
	</g>
	<g>
		<path fill="#FFFFFF" d="M28.2,508.4c0,3.4,0,6.8,0.2,10.3c0.1,0.3,0.1,0.6,0.4,0.7c0.4,0.1,0.6-0.1,0.9-0.3
			c1.3-1.3,0.6-3.6,2.1-4.8h0.3c-0.4,1.1-0.5,2.4-0.4,3.7c-0.1,0.4,0,0.8-0.1,1.2c-1.6,1.1-3.4,2-5,3l-0.1-0.1l0.1-1.7l-0.1-8.7
			l-0.1-3.7c-0.2-0.6-0.8-0.9-1.3-0.9c1.2-0.7,2.4-1.6,3.7-2.1C28.1,505.9,28.3,507.2,28.2,508.4z"/>
	</g>
	<g>
		<path fill="#FFFFFF" d="M58.1,511c0,0.6-0.3,1.2-0.3,1.8v5l0.2,7.5c0.1,0.3,0.4,0.6,0.7,0.8c-0.8,0.6-1.7,1.1-2.6,1.5
			c0.3-0.8,0.1-1.6,0.1-2.5l-0.2-6.8c-0.1-0.1-0.1,0-0.2,0c-0.7,1.8-1.2,3.7-1.8,5.5c-0.4-0.1-0.6-0.6-0.7-0.9
			c-0.6-0.9-0.9-1.8-1.6-2.7c-0.2,0-0.3,0-0.3,0.2c0.1,3-0.1,5.7,0.2,8.7c0.2,0.3,0.5,0.4,0.7,0.7c-0.8,0.7-1.9,1.2-2.8,1.6
			c0.2-0.6,0.5-1.3,0.5-2.1l-0.1-6.3l-0.2-5.4c-0.1-0.5-0.7-0.8-1.2-1c0.7-0.5,1.4-1.2,2.3-1.3c0.9,1.5,1.7,2.9,2.6,4.4
			c0.3,0.1,0.3-0.3,0.4-0.4c0.6-2.4,1.3-4.7,2.1-7.1C56.6,511.7,57.3,511.3,58.1,511z"/>
	</g>
	<g>
		<path fill="#FFFFFF" d="M16.3,512.7c-1,1.4-0.8,3.7-0.3,5.2c-0.6,0-1-0.6-1.4-1c-0.2,0-0.7,0.1-0.8-0.1c0.3-0.4,0.4-0.8,0.4-1.2
			c-0.1-0.6-0.3-1.2-0.9-1.5c-0.9-0.4-2-0.3-2.8,0.2c-0.6,0.6-1.1,1.4-0.7,2.3c1.2,2.7,4.6,3.5,6,6.2c0.8,2,0.6,4.6-0.7,6.3
			c-1.2,1.3-2.8,2.2-4.8,1.8c-1.2-0.2-2.3-1.2-2.7-2.4c-0.3-1.2,0.1-2.3,1-2.9c0.6-0.4,1.6-0.4,2.2,0c0.3,0.2,0.4,0.5,0.5,0.9
			c-0.2,0.3-0.5,0-0.7,0.1c-0.3,0.2-0.7,0.4-0.8,0.8c0,0.5-0.1,0.9,0.2,1.2c0.5,0.7,1.3,0.9,2.1,0.7c1.1-0.3,2.2-1.4,2.4-2.6
			c0.5-4.5-5.4-5.2-6.3-9c-0.4-1.8,0.2-3.5,1.6-4.5c1.4-0.9,3.3-0.9,4.8-0.2c0.5-0.4,1.2-0.7,1.8-0.6L16.3,512.7L16.3,512.7z"/>
	</g>
	<g>
		<path fill="#FFFFFF" d="M22.2,507.8c-0.4,0.4-0.4,1-0.4,1.5c1.2,4,2.2,8.1,3.3,12.2c0.1,0.4,0.6,0.7,0.6,1.2c-1,0.6-2,1.2-3.1,1.6
			c0.8-1.2,0.3-2.5-0.1-3.8c-0.2-0.7-0.5-0.6-0.8-0.4c-0.5,0.2-1.1,0.6-1.4,0.7c-0.4,0.2-0.5,0.8-0.6,1.2c-0.2,0.8-1,2.9,0.3,3.5
			c0.2,0,0.3,0.1,0.4,0c-1,1-2.6,1.6-3.8,2.3c0.1-0.6,0.5-1,0.7-1.5c1.1-5.3,1.9-10.8,2.9-16.2C20.8,509.3,21.1,508.1,22.2,507.8z
			 M21.4,513.7l-0.3,0.1c-0.3,1.7-0.8,3.8-0.8,5.5c0.6-0.3,1.3-0.5,1.8-1.1L21.4,513.7z"/>
	</g>
	<g>
		<path fill="#FFFFFF" d="M48,521.1c0.8,1.7,0.3,3.8-0.7,5.3c-0.4,0.8-1.8,1-1.5,2.1c0.6,2.3,1.2,4.7,3.3,6.2
			c0.5,0.3,1.2,0.3,1.8,0.2c-0.1,0.5-0.7,0.8-1.2,0.9c-2.6,0.1-4-2.7-5-4.6c-0.3-0.9-0.7-1.9-1-2.8l-0.2-0.2l-0.2,0.2
			c0,1.9,0.1,3.9,0,5.8c0.1,0.4,0.6,0.3,0.6,0.6c-0.8,0.6-1.7,1.1-2.7,1.5c0.4-1.7-0.1-3.5,0.1-5.3c-0.1-2.9-0.1-6-0.2-9
			c-0.1-0.3-0.4-0.5-0.7-0.6H40c0.5-0.6,1.3-1,2.1-1.5c1.3-0.7,3.2-1.2,4.6-0.3C47.2,520,47.7,520.6,48,521.1z M44.3,520.6
			c-0.4,0-0.9,0.3-1,0.7c-0.2,1.9,0,3.9,0,5.8c0.1,0.3,0.4,0.3,0.6,0.3c0.7,0,1.3-0.6,1.7-1.1c0.6-1.6,1-3.8,0-5.3
			C45.3,520.7,44.8,520.6,44.3,520.6z"/>
	</g>
	<g>
		<path fill="#FFFFFF" d="M37.9,529.5l1.6,6.9c0,0.3,0.4,0.6,0.6,0.7c-0.8,0.7-1.7,1.1-2.5,1.4c0.4-1.3-0.2-2.6-0.5-3.8
			c-0.1-0.4-0.6-0.2-0.8,0c-1,0.4-2,0.9-2.8,1.6c-0.2,1.3-0.6,2.7-0.5,4c0.2,0.3,0.5,0.5,0.8,0.4l0,0.2c-1.2,0.8-2.3,1.5-3.5,2
			c0.1-0.4,0.5-0.7,0.7-1.2c0.9-2.3,1.2-4.9,1.6-7.3c0.6-3.5,1.4-6.9,1.9-10.3c0.4-1,0.7-2.1,1.6-2.8
			C36.4,524.1,37.3,526.7,37.9,529.5z M35.2,527.5l-0.3,0.7c-0.3,2-0.8,4-0.9,6c0.9-0.1,1.7-0.7,2.5-1.2c0.1-0.3,0.1-0.4,0-0.7
			C36,530.7,35.8,529,35.2,527.5z"/>
	</g>
	<g>
		<path fill="#EB2533" d="M44.6,556.1c0-1.6,1.3-2.8,2.9-2.8c1.6,0,2.9,1.2,2.9,2.8c0,1.7-1.3,2.9-2.9,2.9
			C46,559,44.6,557.8,44.6,556.1z M47.5,558.5c1.3,0,2.3-1,2.3-2.4c0-1.3-1-2.4-2.3-2.4c-1.3,0-2.3,1-2.3,2.4
			C45.2,557.5,46.2,558.5,47.5,558.5z M46.9,557.8h-0.5v-3.3h1.3c0.8,0,1.2,0.3,1.2,0.9c0,0.6-0.4,0.8-0.9,0.9l0.9,1.4h-0.6
			l-0.9-1.4h-0.6V557.8z M47.5,555.9c0.4,0,0.8,0,0.8-0.5c0-0.4-0.4-0.5-0.7-0.5h-0.7v1L47.5,555.9L47.5,555.9z"/>
	</g>
	<g>
		<path fill="#FFFFFF" d="M43.6,503.5c0.6,2.1,0.9,4.4,1.6,6.5c0.1,0.3,0.6,0.4,0.6,0.7c-0.9,0.7-1.8,1.2-2.8,1.6
			c0.1-0.6,0.3-1.5,0.2-2.3l-0.3-1.5c-0.1-0.3-0.4-0.1-0.6-0.1c-0.6,0.6-1.6,0.7-2,1.5c0,1.1-0.6,2-0.4,3.2c0.2,0.4,0.7,0.4,1.2,0.4
			c-1.3,0.7-2.4,1.6-3.8,2.2h0c1.5-3.4,1.6-7.3,2.5-10.9c0.8-2.9,0.7-6.2,2.2-8.8l0.2-0.1C42,498.5,43.2,500.9,43.6,503.5z
			 M41.8,502.1l-0.3,0.1c-0.3,1.7-0.8,3.8-0.8,5.5c0.6-0.3,1.3-0.5,1.8-1.1L41.8,502.1z"/>
	</g>
</g>
<g>
	<path fill="#C8C4BB" d="M1,117.4c0.1,0,0.1,0,0.2,0c19.1,0,34.5-15.4,34.5-34.5S20.2,48.4,1.2,48.4c-0.1,0-0.1,0-0.2,0
		C1,48.4,1,117.4,1,117.4z"/>
	<polygon fill="#FFFFFF" points="21.1,96.3 22.8,94.6 11.1,82.9 22.8,71.2 21.1,69.5 7.7,82.9 	"/>
</g>
<g>
	<path fill="#C8C4BB" d="M35.7,130c-0.1,0-0.1,0-0.2,0C16.4,130,1,145.4,1,164.5S16.4,199,35.5,199c0.1,0,0.1,0,0.2,0V130z"/>
	<polygon fill="#FFFFFF" points="15.6,151.1 13.9,152.8 25.6,164.5 13.9,176.2 15.6,177.9 29,164.5 	"/>
</g>
<g>
	<path fill="#E62F34" d="M12.4,210.9c-0.6-0.1-1.1-0.1-1.7-0.1v0c0,0,0,0,0,0c0,0,0,0,0,0v0c-0.6,0-1.1,0.1-1.7,0.1
		c-5,0.8-9,5.3-9,10.5c0,1.5,0.5,3.2,1.1,4.6c2.1,4.7,5.5,8.5,8.9,12.2c0.2,0.2,0.6,0.6,0.7,0.8l0,0l0,0c0.1-0.2,0.5-0.6,0.7-0.8
		c3.4-3.8,6.8-7.6,8.9-12.2c0.6-1.4,1.1-3.1,1.1-4.6C21.5,216.2,17.5,211.7,12.4,210.9z"/>
</g>
<g>
	<circle fill="#A41E23" cx="10.8" cy="221.9" r="4.2"/>
	<path fill="#921A1D" d="M10.8,226.2c-2.4,0-4.3-1.9-4.3-4.3s1.9-4.3,4.3-4.3s4.3,1.9,4.3,4.3S13.2,226.2,10.8,226.2z M10.8,217.7
		c-2.3,0-4.2,1.9-4.2,4.2s1.9,4.2,4.2,4.2s4.2-1.9,4.2-4.2C14.9,219.6,13.1,217.7,10.8,217.7z"/>
</g>
<circle fill="#FF8A15" cx="29.6" cy="369.6" r="29.6"/>
<circle fill="#66C1DD" cx="129.6" cy="369.6" r="29.6"/>
<circle fill="#C11E2A" cx="229.6" cy="369.6" r="29.6"/>
<circle fill="#425ABC" cx="329.6" cy="369.6" r="29.6"/>
<path id="RSS_2_" fill="#FFFFFF" d="M22.1,377.1c0.7,0.7,1.1,1.6,1.1,2.6c0,1-0.4,1.9-1.1,2.6l0,0c-0.7,0.7-1.6,1.1-2.6,1.1
	c-1,0-1.9-0.4-2.6-1.1c-0.7-0.7-1.1-1.6-1.1-2.6s0.4-1.9,1.1-2.6v0c0.7-0.7,1.6-1.1,2.6-1.1C20.5,376,21.4,376.4,22.1,377.1z
	 M22.1,377.1L22.1,377.1C22.1,377.1,22.1,377.1,22.1,377.1L22.1,377.1z M17,382.2C17,382.2,17,382.2,17,382.2
	C17,382.2,17,382.2,17,382.2L17,382.2z M15.9,365.2v5.2c3.4,0,6.6,1.3,9.1,3.8c2.4,2.4,3.8,5.6,3.8,9.1h0v0H34c0-5-2-9.5-5.3-12.8
	C25.4,367.2,20.9,365.2,15.9,365.2z M15.9,355.9v5.2c12.2,0,22.1,9.9,22.1,22.1h5.2c0-7.5-3.1-14.4-8-19.3
	C30.3,359,23.5,355.9,15.9,355.9z"/>
<path fill="#FFFFFF" d="M230.3,353.5c-8.8,0-13.2,6.3-13.2,11.6c0,3.2,1.2,6,3.8,7.1c0.4,0.2,0.8,0,0.9-0.5c0.1-0.3,0.3-1.1,0.4-1.5
	c0.1-0.5,0.1-0.6-0.3-1c-0.7-0.9-1.2-2-1.2-3.6c0-4.7,3.5-8.9,9.1-8.9c5,0,7.7,3,7.7,7.1c0,5.3-2.4,9.9-5.9,9.9
	c-1.9,0-3.4-1.6-2.9-3.6c0.6-2.3,1.6-4.9,1.6-6.6c0-1.5-0.8-2.8-2.5-2.8c-2,0-3.6,2.1-3.6,4.8c0,1.7,0.6,2.9,0.6,2.9
	s-2,8.6-2.4,10.1c-0.7,3-0.1,6.7-0.1,7c0,0.2,0.3,0.3,0.4,0.1c0.2-0.2,2.5-3.2,3.3-6.1c0.2-0.8,1.3-5.1,1.3-5.1
	c0.6,1.2,2.5,2.3,4.5,2.3c6,0,10-5.4,10-12.7C242.1,358.6,237.4,353.5,230.3,353.5z"/>
<path fill="#FFFFFF" d="M145.3,359.9c-1.2,0.5-2.4,0.9-3.7,1c1.3-0.8,2.4-2.1,2.8-3.6c-1.2,0.7-2.6,1.3-4.1,1.6
	c-1.2-1.2-2.8-2-4.7-2c-3.6,0-6.4,2.9-6.4,6.4c0,0.5,0.1,1,0.2,1.5c-5.4-0.3-10.1-2.8-13.3-6.7c-0.6,1-0.9,2.1-0.9,3.2
	c0,2.2,1.1,4.2,2.9,5.4c-1.1,0-2-0.3-2.9-0.8c0,0,0,0.1,0,0.1c0,3.1,2.2,5.7,5.2,6.3c-0.5,0.1-1.1,0.2-1.7,0.2c-0.4,0-0.8,0-1.2-0.1
	c0.8,2.6,3.2,4.4,6,4.5c-2.2,1.7-5,2.8-8,2.8c-0.5,0-1,0-1.5-0.1c2.8,1.8,6.2,2.9,9.9,2.9c11.8,0,18.3-9.8,18.3-18.3
	c0-0.3,0-0.6,0-0.8C143.3,362.3,144.4,361.1,145.3,359.9z"/>
<path id="Facebook_5_" fill="#FFFFFF" d="M325.6,360.9c0,0.8,0,4.2,0,4.2h-3.1v5.1h3.1v14h6.3v-14h4.2c0,0,0.4-2.4,0.6-5.1
	c-0.5,0-4.8,0-4.8,0s0-3,0-3.5s0.7-1.2,1.4-1.2c0.7,0,2.1,0,3.4,0c0-0.7,0-3.1,0-5.3c-1.8,0-3.8,0-4.6,0
	C325.4,355,325.6,360.1,325.6,360.9z"/>
<path fill="#B3AEA6" d="M29.6,254C13.2,254,0,267.2,0,283.6c0,16.3,13.2,29.6,29.6,29.6c16.3,0,29.6-13.2,29.6-29.6
	C59.2,267.2,45.9,254,29.6,254z M22.1,296.2L22.1,296.2c-0.7,0.7-1.6,1.1-2.6,1.1c-1,0-1.9-0.4-2.6-1.1c0,0,0,0,0,0l0,0c0,0,0,0,0,0
	c-0.7-0.7-1.1-1.6-1.1-2.6c0-1,0.4-1.9,1.1-2.6l0,0c0.7-0.7,1.6-1.1,2.6-1.1c1,0,1.9,0.4,2.6,1.1l0,0h0c0,0,0,0,0,0
	c0.7,0.7,1.1,1.6,1.1,2.6C23.2,294.6,22.8,295.5,22.1,296.2z M28.7,297.3L28.7,297.3L28.7,297.3c0-3.4-1.3-6.7-3.8-9.1
	c-2.4-2.4-5.6-3.8-9.1-3.8v-5.2c5,0,9.5,2,12.8,5.3c3.3,3.3,5.3,7.8,5.3,12.8L28.7,297.3L28.7,297.3z M38,297.3
	c0-12.2-9.9-22.1-22.1-22.1v-5.2c7.5,0,14.4,3.1,19.3,8c5,5,8,11.8,8,19.3L38,297.3L38,297.3z"/>
<path fill="#B3AEA6" d="M229.6,254c-16.3,0-29.6,13.2-29.6,29.6c0,16.3,13.2,29.6,29.6,29.6c16.3,0,29.6-13.2,29.6-29.6
	C259.2,267.2,245.9,254,229.6,254z M232.1,290.8c-2,0-3.9-1.1-4.5-2.3c0,0-1.1,4.3-1.3,5.1c-0.8,2.9-3.2,5.8-3.3,6.1
	c-0.1,0.2-0.4,0.1-0.4-0.1c-0.1-0.4-0.7-4,0.1-7c0.4-1.5,2.4-10.1,2.4-10.1s-0.6-1.2-0.6-2.9c0-2.7,1.6-4.8,3.6-4.8
	c1.7,0,2.5,1.3,2.5,2.8c0,1.7-1.1,4.2-1.6,6.6c-0.5,2,1,3.6,2.9,3.6c3.5,0,5.9-4.5,5.9-9.9c0-4.1-2.7-7.1-7.7-7.1
	c-5.6,0-9.1,4.2-9.1,8.9c0,1.6,0.5,2.8,1.2,3.6c0.3,0.4,0.4,0.6,0.3,1c-0.1,0.3-0.3,1.2-0.4,1.5c-0.1,0.5-0.5,0.6-0.9,0.5
	c-2.6-1.1-3.8-3.9-3.8-7.1c0-5.3,4.4-11.6,13.2-11.6c7.1,0,11.7,5.1,11.7,10.6C242.1,285.3,238,290.8,232.1,290.8z"/>
<path fill="#B3AEA6" d="M129.6,254c-16.3,0-29.6,13.2-29.6,29.6c0,16.3,13.2,29.6,29.6,29.6s29.6-13.2,29.6-29.6
	C159.2,267.2,145.9,254,129.6,254z M142.1,277.2c0,0.3,0,0.6,0,0.8c0,8.5-6.5,18.3-18.3,18.3c-3.6,0-7-1.1-9.9-2.9
	c0.5,0.1,1,0.1,1.5,0.1c3,0,5.8-1,8-2.8c-2.8-0.1-5.2-1.9-6-4.5c0.4,0.1,0.8,0.1,1.2,0.1c0.6,0,1.2-0.1,1.7-0.2
	c-2.9-0.6-5.2-3.2-5.2-6.3c0,0,0-0.1,0-0.1c0.9,0.5,1.9,0.8,2.9,0.8c-1.7-1.2-2.9-3.1-2.9-5.4c0-1.2,0.3-2.3,0.9-3.2
	c3.2,3.9,7.9,6.5,13.3,6.7c-0.1-0.5-0.2-1-0.2-1.5c0-3.6,2.9-6.4,6.4-6.4c1.9,0,3.5,0.8,4.7,2c1.5-0.3,2.8-0.8,4.1-1.6
	c-0.5,1.5-1.5,2.8-2.8,3.6c1.3-0.2,2.5-0.5,3.7-1C144.4,275.1,143.3,276.3,142.1,277.2z"/>
<path fill="#B3AEA6" d="M329.6,254c-16.3,0-29.6,13.2-29.6,29.6c0,16.3,13.2,29.6,29.6,29.6c16.3,0,29.6-13.2,29.6-29.6
	C359.2,267.2,345.9,254,329.6,254z M336.7,274.3c-1.3,0-2.7,0-3.4,0c-0.7,0-1.4,0.7-1.4,1.2c0,0.5,0,3.5,0,3.5s4.2,0,4.8,0
	c-0.2,2.7-0.6,5.1-0.6,5.1h-4.2v14h-6.3v-14h-3.1v-5.1h3.1c0,0,0-3.4,0-4.2s-0.2-5.9,6.4-5.9c0.9,0,2.9,0,4.6,0
	C336.7,271.2,336.7,273.6,336.7,274.3z"/>
<circle fill="#E72F34" cx="429.6" cy="369.6" r="29.6"/>
<g>
	<g>
		<polygon id="SVGID_1_" fill="#FFFFFF" points="425.2,352.5 424,357.6 423.9,357.6 422.6,352.5 420.6,352.5 423,360.1 423,365.1 
			424.9,365.1 424.9,359.9 427.2,352.5 		"/>
	</g>
	<g>
		<g>
			<g>
				<g>
					<g>
						<g>
							<defs>
								<polygon id="SVGID_2_" points="425.2,352.5 424,357.6 423.9,357.6 422.6,352.5 420.6,352.5 423,360.1 423,365.1 
									424.9,365.1 424.9,359.9 427.2,352.5 								"/>
							</defs>
							<clipPath id="SVGID_4_">
								<use xlink:href="#SVGID_2_"  overflow="visible"/>
							</clipPath>
							<rect x="420.6" y="352.5" clip-path="url(#SVGID_4_)" fill="#FFFFFF" width="6.5" height="12.6"/>
						</g>
					</g>
				</g>
			</g>
		</g>
	</g>
</g>
<g>
	<g>
		<path id="SVGID_3_" fill="#FFFFFF" d="M429,363.5c-0.1-0.1-0.2-0.3-0.2-0.6v-5.1c0-0.2,0.1-0.4,0.2-0.5c0.1-0.1,0.3-0.2,0.5-0.2
			c0.2,0,0.4,0.1,0.6,0.2c0.1,0.1,0.2,0.3,0.2,0.5v5.1c0,0.2-0.1,0.4-0.2,0.6c-0.1,0.1-0.3,0.2-0.6,0.2
			C429.3,363.7,429.2,363.7,429,363.5 M427.8,356.2c-0.5,0.4-0.7,1-0.7,1.7l0,4.8c0,0.8,0.2,1.4,0.7,1.9c0.5,0.5,1.1,0.7,1.8,0.7
			c0.8,0,1.4-0.2,1.9-0.7c0.4-0.5,0.7-1.1,0.7-1.9V358c0-0.7-0.2-1.3-0.7-1.7c-0.5-0.5-1-0.7-1.8-0.7
			C428.9,355.6,428.2,355.8,427.8,356.2"/>
	</g>
	<g>
		<g>
			<g>
				<g>
					<g>
						<g>
							<defs>
								<path id="SVGID_6_" d="M429,363.5c-0.1-0.1-0.2-0.3-0.2-0.6v-5.1c0-0.2,0.1-0.4,0.2-0.5c0.1-0.1,0.3-0.2,0.5-0.2
									c0.2,0,0.4,0.1,0.6,0.2c0.1,0.1,0.2,0.3,0.2,0.5v5.1c0,0.2-0.1,0.4-0.2,0.6c-0.1,0.1-0.3,0.2-0.6,0.2
									C429.3,363.7,429.2,363.7,429,363.5 M427.8,356.2c-0.5,0.4-0.7,1-0.7,1.7l0,4.8c0,0.8,0.2,1.4,0.7,1.9
									c0.5,0.5,1.1,0.7,1.8,0.7c0.8,0,1.4-0.2,1.9-0.7c0.4-0.5,0.7-1.1,0.7-1.9V358c0-0.7-0.2-1.3-0.7-1.7c-0.5-0.5-1-0.7-1.8-0.7
									C428.9,355.6,428.2,355.8,427.8,356.2"/>
							</defs>
							<clipPath id="SVGID_7_">
								<use xlink:href="#SVGID_6_"  overflow="visible"/>
							</clipPath>
							<rect x="427.1" y="355.6" clip-path="url(#SVGID_7_)" fill="#FFFFFF" width="5" height="9.8"/>
						</g>
					</g>
				</g>
			</g>
		</g>
	</g>
</g>
<g>
	<g>
		<path id="SVGID_5_" fill="#FFFFFF" d="M436.8,355.8v7.1c-0.2,0.2-0.3,0.4-0.5,0.5c-0.2,0.1-0.4,0.2-0.5,0.2
			c-0.2,0-0.3-0.1-0.4-0.1c-0.1-0.1-0.1-0.3-0.1-0.5v-7.1h-1.7v7.8c0,0.6,0.1,1,0.3,1.2c0.2,0.3,0.5,0.4,0.9,0.4
			c0.3,0,0.7-0.1,1-0.3s0.7-0.5,1-0.9v1h1.7v-9.3H436.8z"/>
	</g>
	<g>
		<g>
			<g>
				<g>
					<g>
						<g>
							<defs>
								<path id="SVGID_8_" d="M436.8,355.8v7.1c-0.2,0.2-0.3,0.4-0.5,0.5c-0.2,0.1-0.4,0.2-0.5,0.2c-0.2,0-0.3-0.1-0.4-0.1
									c-0.1-0.1-0.1-0.3-0.1-0.5v-7.1h-1.7v7.8c0,0.6,0.1,1,0.3,1.2c0.2,0.3,0.5,0.4,0.9,0.4c0.3,0,0.7-0.1,1-0.3s0.7-0.5,1-0.9v1
									h1.7v-9.3H436.8z"/>
							</defs>
							<clipPath id="SVGID_9_">
								<use xlink:href="#SVGID_8_"  overflow="visible"/>
							</clipPath>
							<rect x="433.6" y="355.8" clip-path="url(#SVGID_9_)" fill="#FFFFFF" width="4.9" height="9.4"/>
						</g>
					</g>
				</g>
			</g>
		</g>
	</g>
</g>
<g>
	<path fill="#FFFFFF" d="M438.9,375.1c-0.3,0-0.5,0.1-0.6,0.3c-0.1,0.2-0.2,0.4-0.2,0.8v0.9h1.5v-0.9c0-0.4-0.1-0.7-0.2-0.8
		C439.4,375.2,439.2,375.1,438.9,375.1z"/>
	<path fill="#FFFFFF" d="M432.6,375.1c-0.1,0-0.2,0-0.4,0.1s-0.2,0.2-0.4,0.3v5.8c0.1,0.2,0.3,0.3,0.4,0.3c0.1,0.1,0.3,0.1,0.4,0.1
		c0.2,0,0.4-0.1,0.5-0.2c0.1-0.1,0.2-0.3,0.2-0.6v-4.8c0-0.3-0.1-0.6-0.2-0.7C433,375.2,432.8,375.1,432.6,375.1z"/>
	<path fill="#FFFFFF" d="M443.6,371.6c0-2.2-1.8-4.1-4.1-4.1c-3.1-0.1-6.2-0.2-9.4-0.2c-0.2,0-0.3,0-0.5,0c-0.2,0-0.3,0-0.5,0
		c-3.2,0-6.4,0.1-9.4,0.2c-2.3,0-4.1,1.8-4.1,4.1c-0.1,1.8-0.2,3.6-0.2,5.3c0,1.8,0.1,3.6,0.2,5.3c0,2.2,1.8,4.1,4.1,4.1
		c3.2,0.1,6.6,0.2,9.9,0.2c3.4,0,6.7-0.1,9.9-0.2c2.3,0,4.1-1.8,4.1-4.1c0.1-1.8,0.2-3.6,0.2-5.3
		C443.8,375.1,443.8,373.4,443.6,371.6z M421.5,383h-1.9v-10.8h-2v-1.8h6v1.8h-2L421.5,383L421.5,383z M428.4,383h-1.7v-1
		c-0.3,0.4-0.6,0.7-1,0.9c-0.3,0.2-0.7,0.3-1,0.3c-0.4,0-0.7-0.1-0.9-0.4c-0.2-0.3-0.3-0.7-0.3-1.2v-7.8h1.7v7.1
		c0,0.2,0,0.4,0.1,0.5c0.1,0.1,0.2,0.1,0.4,0.1c0.1,0,0.3-0.1,0.5-0.2c0.2-0.1,0.4-0.3,0.5-0.5v-7.1h1.7L428.4,383L428.4,383z
		 M435.1,381.1c0,0.7-0.1,1.2-0.4,1.5c-0.3,0.4-0.7,0.5-1.2,0.5c-0.3,0-0.6-0.1-0.9-0.2c-0.3-0.1-0.5-0.3-0.7-0.6v0.7h-1.7v-12.6
		h1.7v4.1c0.2-0.3,0.5-0.5,0.7-0.6c0.3-0.1,0.5-0.2,0.8-0.2c0.5,0,1,0.2,1.2,0.6c0.3,0.4,0.4,1,0.4,1.7L435.1,381.1L435.1,381.1z
		 M441.5,378.6h-3.3v1.8c0,0.5,0.1,0.8,0.2,1c0.1,0.2,0.3,0.3,0.6,0.3c0.3,0,0.5-0.1,0.6-0.2c0.1-0.2,0.2-0.5,0.2-1.1v-0.6h1.8v0.7
		c0,0.9-0.2,1.7-0.6,2.2c-0.4,0.5-1.1,0.7-1.9,0.7c-0.8,0-1.4-0.3-1.8-0.8c-0.4-0.5-0.7-1.2-0.7-2.1v-4.2c0-0.8,0.2-1.5,0.7-2
		c0.5-0.5,1.1-0.8,1.9-0.8c0.8,0,1.4,0.2,1.8,0.7c0.4,0.5,0.6,1.1,0.6,2V378.6L441.5,378.6z"/>
</g>
<g>
	<path fill="#B3AEA6" d="M429.7,277.8c0.2,0,0.4-0.1,0.6-0.2c0.1-0.1,0.2-0.3,0.2-0.6v-5.1c0-0.2-0.1-0.4-0.2-0.5
		c-0.1-0.1-0.3-0.2-0.6-0.2c-0.2,0-0.4,0.1-0.5,0.2c-0.1,0.1-0.2,0.3-0.2,0.5v5.1c0,0.3,0.1,0.5,0.2,0.6
		C429.3,277.7,429.4,277.8,429.7,277.8z"/>
	<polygon fill="#B3AEA6" points="423.5,284.4 417.6,284.4 417.6,286.3 419.6,286.3 419.6,297 421.5,297 421.5,286.3 423.5,286.3 	
		"/>
	<path fill="#B3AEA6" d="M433.4,287.6c-0.3,0-0.5,0.1-0.8,0.2c-0.3,0.1-0.5,0.4-0.7,0.6v-4.1h-1.7V297h1.7v-0.7
		c0.2,0.3,0.5,0.5,0.7,0.6c0.3,0.1,0.6,0.2,0.9,0.2c0.5,0,0.9-0.2,1.2-0.5c0.3-0.4,0.4-0.9,0.4-1.5V290c0-0.8-0.1-1.3-0.4-1.7
		C434.4,287.8,434,287.6,433.4,287.6z M433.3,294.9c0,0.3-0.1,0.5-0.2,0.6c-0.1,0.1-0.3,0.2-0.5,0.2c-0.1,0-0.3,0-0.4-0.1
		c-0.1-0.1-0.3-0.2-0.4-0.3v-5.8c0.1-0.1,0.2-0.2,0.4-0.3c0.1-0.1,0.2-0.1,0.4-0.1c0.2,0,0.4,0.1,0.5,0.2c0.1,0.2,0.2,0.4,0.2,0.7
		L433.3,294.9L433.3,294.9z"/>
	<path fill="#B3AEA6" d="M426.7,294.8c-0.2,0.2-0.3,0.4-0.5,0.5c-0.2,0.1-0.4,0.2-0.5,0.2c-0.2,0-0.3-0.1-0.4-0.1
		c-0.1-0.1-0.1-0.3-0.1-0.5v-7.1h-1.7v7.8c0,0.6,0.1,1,0.3,1.2c0.2,0.3,0.5,0.4,0.9,0.4c0.3,0,0.7-0.1,1-0.3c0.3-0.2,0.7-0.5,1-0.9
		v1h1.7v-9.3h-1.7L426.7,294.8L426.7,294.8z"/>
	<path fill="#B3AEA6" d="M429.6,254c-16.3,0-29.6,13.2-29.6,29.6c0,16.3,13.2,29.6,29.6,29.6c16.3,0,29.6-13.2,29.6-29.6
		C459.2,267.2,445.9,254,429.6,254z M433.6,269.8l1.7,0v7.1c0,0.2,0,0.4,0.1,0.5c0.1,0.1,0.2,0.1,0.4,0.1c0.1,0,0.3-0.1,0.5-0.2
		c0.2-0.1,0.4-0.3,0.5-0.5v-7.1h1.7v9.3h-1.7v-1c-0.3,0.4-0.6,0.7-1,0.9c-0.3,0.2-0.7,0.3-1,0.3c-0.4,0-0.7-0.1-0.9-0.4
		c-0.2-0.3-0.3-0.7-0.3-1.2L433.6,269.8L433.6,269.8z M429.7,269.7c0.7,0,1.3,0.2,1.8,0.7c0.5,0.4,0.7,1,0.7,1.7v4.8
		c0,0.8-0.2,1.4-0.7,1.9c-0.4,0.5-1.1,0.7-1.8,0.7c-0.8,0-1.4-0.2-1.8-0.7c-0.5-0.5-0.7-1.1-0.7-1.9l0-4.8c0-0.7,0.2-1.3,0.7-1.7
		C428.3,269.9,429,269.7,429.7,269.7z M422.6,266.5l1.3,5h0.1l1.2-5h2l-2.3,7.4v5.2H423v-5l-2.3-7.6H422.6L422.6,266.5z
		 M443.6,296.3c0,2.2-1.8,4.1-4.1,4.1c-3.2,0.1-6.6,0.2-9.9,0.2c-3.4,0-6.7-0.1-9.9-0.2c-2.3,0-4.1-1.8-4.1-4.1
		c-0.1-1.8-0.2-3.6-0.2-5.3c0-1.8,0.1-3.6,0.2-5.3c0-2.2,1.8-4.1,4.1-4.1c3.1-0.1,6.2-0.2,9.4-0.2c0.2,0,0.3,0,0.5,0
		c0.2,0,0.3,0,0.5,0c3.2,0,6.4,0.1,9.4,0.2c2.3,0,4.1,1.8,4.1,4.1c0.1,1.8,0.2,3.6,0.2,5.3C443.8,292.7,443.8,294.5,443.6,296.3z"/>
	<path fill="#B3AEA6" d="M439,287.5c-0.8,0-1.4,0.3-1.9,0.8c-0.5,0.5-0.7,1.2-0.7,2v4.2c0,0.9,0.2,1.6,0.7,2.1
		c0.4,0.5,1.1,0.8,1.8,0.8c0.9,0,1.5-0.2,1.9-0.7c0.4-0.5,0.6-1.2,0.6-2.2v-0.7h-1.8v0.6c0,0.5-0.1,0.9-0.2,1.1
		c-0.1,0.2-0.3,0.2-0.6,0.2c-0.3,0-0.5-0.1-0.6-0.3c-0.1-0.2-0.2-0.5-0.2-1v-1.8h3.3v-2.4c0-0.9-0.2-1.6-0.6-2
		C440.4,287.7,439.8,287.5,439,287.5z M439.7,291.2h-1.5v-0.9c0-0.4,0.1-0.7,0.2-0.8c0.1-0.2,0.3-0.3,0.6-0.3c0.3,0,0.5,0.1,0.6,0.3
		c0.1,0.2,0.2,0.4,0.2,0.8L439.7,291.2L439.7,291.2z"/>
</g>
<path fill="#F2F2F2" d="M88,72.4c0,1.1-0.9,1.9-1.9,1.9H63.5c-1.1,0-1.9-0.9-1.9-1.9l0,0c0-1.1,0.9-1.9,1.9-1.9h22.6
	C87.2,70.5,88,71.4,88,72.4L88,72.4z"/>
<path fill="#F2F2F2" d="M88,79.1c0,1.1-0.9,1.9-1.9,1.9H63.5c-1.1,0-1.9-0.9-1.9-1.9l0,0c0-1.1,0.9-1.9,1.9-1.9h22.6
	C87.2,77.2,88,78.1,88,79.1L88,79.1z"/>
<path fill="#F2F2F2" d="M88,85.8c0,1.1-0.9,1.9-1.9,1.9H63.5c-1.1,0-1.9-0.9-1.9-1.9l0,0c0-1.1,0.9-1.9,1.9-1.9h22.6
	C87.2,83.9,88,84.8,88,85.8L88,85.8z"/>
<g>
	<g>
		<path fill="#E62F34" d="M135.2,0.3C134,0.1,132.7,0,131.5,0v0c0,0,0,0-0.1,0c0,0,0,0-0.1,0v0c-1.2,0-2.4,0.1-3.7,0.3
			c-11,1.7-19.7,11.6-19.7,23c0,3.4,1,7,2.4,10.1c4.7,10.2,12,18.5,19.5,26.8c0.5,0.5,1.2,1.4,1.5,1.7l0.1,0.1l0.1-0.1
			c0.3-0.3,1.1-1.2,1.5-1.7c7.4-8.2,14.8-16.6,19.5-26.8c1.4-3.1,2.4-6.7,2.4-10.1C154.9,12,146.2,2.1,135.2,0.3z"/>
	</g>
	<g>
		<circle fill="#A41E23" cx="131.5" cy="24.3" r="9.3"/>
		<path fill="#921A1D" d="M131.5,33.8c-5.2,0-9.5-4.3-9.5-9.5c0-5.2,4.3-9.5,9.5-9.5c5.2,0,9.5,4.3,9.5,9.5
			C141,29.6,136.8,33.8,131.5,33.8z M131.5,15.3c-5,0-9.1,4.1-9.1,9.1c0,5,4.1,9.1,9.1,9.1c5,0,9.1-4.1,9.1-9.1
			C140.6,19.3,136.5,15.3,131.5,15.3z"/>
	</g>
</g>
<path fill="#C9C5BC" d="M580,140c-5.5,0-10,4.5-10,10c0,5.5,4.5,10,10,10s10-4.5,10-10C590,144.5,585.5,140,580,140z M584.2,147.8
	c0,0.1,0,0.2,0,0.3c0,2.9-2.2,6.2-6.2,6.2c-1.2,0-2.4-0.4-3.3-1c0.2,0,0.3,0,0.5,0c1,0,2-0.3,2.7-0.9c-1,0-1.8-0.6-2-1.5
	c0.1,0,0.3,0,0.4,0c0.2,0,0.4,0,0.6-0.1c-1-0.2-1.7-1.1-1.7-2.1c0,0,0,0,0,0c0.3,0.2,0.6,0.3,1,0.3c-0.6-0.4-1-1.1-1-1.8
	c0-0.4,0.1-0.8,0.3-1.1c1.1,1.3,2.7,2.2,4.5,2.3c0-0.2-0.1-0.3-0.1-0.5c0-1.2,1-2.2,2.2-2.2c0.6,0,1.2,0.3,1.6,0.7
	c0.5-0.1,1-0.3,1.4-0.5c-0.2,0.5-0.5,0.9-1,1.2c0.4-0.1,0.9-0.2,1.2-0.3C585,147.1,584.6,147.5,584.2,147.8z"/>
<path fill="#C9C5BC" d="M606,140c-5.5,0-10,4.5-10,10s4.5,10,10,10s10-4.5,10-10C616,144.5,611.5,140,606,140z M608.4,146.9
	c-0.4,0-0.9,0-1.2,0c-0.2,0-0.5,0.2-0.5,0.4s0,1.2,0,1.2s1.4,0,1.6,0c-0.1,0.9-0.2,1.7-0.2,1.7h-1.4v4.7h-2.1v-4.7h-1v-1.7h1
	c0,0,0-1.2,0-1.4s-0.1-2,2.2-2c0.3,0,1,0,1.6,0C608.4,145.8,608.4,146.6,608.4,146.9z"/>
<path fill="#FFFFFF" d="M580,170c-5.5,0-10,4.5-10,10c0,5.5,4.5,10,10,10s10-4.5,10-10C590,174.5,585.5,170,580,170z M584.2,177.8
	c0,0.1,0,0.2,0,0.3c0,2.9-2.2,6.2-6.2,6.2c-1.2,0-2.4-0.4-3.3-1c0.2,0,0.3,0,0.5,0c1,0,2-0.3,2.7-0.9c-1,0-1.8-0.6-2-1.5
	c0.1,0,0.3,0,0.4,0c0.2,0,0.4,0,0.6-0.1c-1-0.2-1.7-1.1-1.7-2.1c0,0,0,0,0,0c0.3,0.2,0.6,0.3,1,0.3c-0.6-0.4-1-1.1-1-1.8
	c0-0.4,0.1-0.8,0.3-1.1c1.1,1.3,2.7,2.2,4.5,2.3c0-0.2-0.1-0.3-0.1-0.5c0-1.2,1-2.2,2.2-2.2c0.6,0,1.2,0.3,1.6,0.7
	c0.5-0.1,1-0.3,1.4-0.5c-0.2,0.5-0.5,0.9-1,1.2c0.4-0.1,0.9-0.2,1.2-0.3C585,177.1,584.6,177.5,584.2,177.8z"/>
<path fill="#FFFFFF" d="M606,170c-5.5,0-10,4.5-10,10s4.5,10,10,10s10-4.5,10-10S611.5,170,606,170z M608.4,176.9
	c-0.4,0-0.9,0-1.2,0c-0.2,0-0.5,0.2-0.5,0.4s0,1.2,0,1.2s1.4,0,1.6,0c-0.1,0.9-0.2,1.7-0.2,1.7h-1.4v4.7h-2.1v-4.7h-1v-1.7h1
	c0,0,0-1.2,0-1.4s-0.1-2,2.2-2c0.3,0,1,0,1.6,0C608.4,175.8,608.4,176.6,608.4,176.9z"/>
<g>
	<circle fill="#FFFFFF" cx="530.7" cy="284.5" r="21.9"/>
	<g>
		<path fill="#B3AEA6" d="M529.6,254c-16.3,0-29.6,13.2-29.6,29.6c0,16.3,13.2,29.6,29.6,29.6c16.3,0,29.6-13.2,29.6-29.6
			S545.9,254,529.6,254z M541.2,300.4c-1.6,0.7-3,1.3-4.3,1.6c-1.3,0.3-2.7,0.4-4.2,0.4c-1.7,0-2.7-0.2-4-0.6
			c-1.3-0.4-2.4-1-3.3-1.8c-0.9-0.8-1.6-1.6-1.9-2.5c-0.4-0.9-0.5-2.2-0.5-3.9v-13h-5v-5.2c1.5-0.5,3.1-1.1,4.2-2
			c1-0.9,1.9-1.9,2.5-3.2c0.6-1.2,1.1-2.8,1.3-4.7h5.3v8.5h8.5v6.6h-8.5v9.5c0,2.1,0,3.4,0.2,4c0.2,0.6,0.8,1.2,1.4,1.6
			c0.8,0.5,1.8,0.7,2.8,0.7c1.9,0,3.7-0.6,5.6-1.8L541.2,300.4L541.2,300.4z"/>
	</g>
</g>
<g>
	<circle fill="#FFFFFF" cx="529.6" cy="369.6" r="21.9"/>
	<g>
		<path fill="#304E6C" d="M529.6,340c-16.3,0-29.6,13.2-29.6,29.6s13.2,29.6,29.6,29.6c16.3,0,29.6-13.2,29.6-29.6
			S545.9,340,529.6,340z M541.2,386.4c-1.6,0.7-3,1.3-4.3,1.6c-1.3,0.3-2.7,0.4-4.2,0.4c-1.7,0-2.7-0.2-4-0.6
			c-1.3-0.4-2.4-1-3.3-1.8c-0.9-0.8-1.6-1.6-1.9-2.5c-0.4-0.9-0.5-2.2-0.5-3.9v-13h-5v-5.2c1.5-0.5,3.1-1.1,4.2-2
			c1-0.9,1.9-1.9,2.5-3.2c0.6-1.2,1.1-2.8,1.3-4.7h5.3v8.5h8.5v6.6h-8.5v9.5c0,2.1,0,3.4,0.2,4c0.2,0.6,0.8,1.2,1.4,1.6
			c0.8,0.5,1.8,0.7,2.8,0.7c1.9,0,3.7-0.6,5.6-1.8L541.2,386.4L541.2,386.4z"/>
	</g>
</g>
<circle fill="#FFFFFF" cx="636.7" cy="284.5" r="21.9"/>
<circle fill="#B3AEA6" cx="635.6" cy="283.6" r="29.6"/>
<path id="flickr-icon" fill="#FFFFFF" d="M645.5,272.6c-4.1,0-7.7,2.4-9.4,5.8c-1.7-3.4-5.3-5.8-9.4-5.8c-5.8,0-10.6,4.7-10.6,10.6
	c0,5.8,4.7,10.6,10.6,10.6c4.1,0,7.7-2.4,9.4-5.8c1.7,3.4,5.3,5.8,9.4,5.8c5.8,0,10.6-4.7,10.6-10.6
	C656.1,277.4,651.3,272.6,645.5,272.6z M645.5,291c-4.3,0-7.8-3.5-7.8-7.8c0-4.3,3.5-7.8,7.8-7.8c4.3,0,7.8,3.5,7.8,7.8
	C653.3,287.5,649.8,291,645.5,291z"/>
<circle fill="#FFFFFF" cx="636.7" cy="370.5" r="21.9"/>
<circle fill="#2D1152" cx="635.6" cy="369.6" r="29.6"/>
<path id="flickr-icon_1_" fill="#FFFFFF" d="M645.5,358.6c-4.1,0-7.7,2.4-9.4,5.8c-1.7-3.4-5.3-5.8-9.4-5.8
	c-5.8,0-10.6,4.7-10.6,10.6c0,5.8,4.7,10.6,10.6,10.6c4.1,0,7.7-2.4,9.4-5.8c1.7,3.4,5.3,5.8,9.4,5.8c5.8,0,10.6-4.7,10.6-10.6
	C656.1,363.4,651.3,358.6,645.5,358.6z M645.5,377c-4.3,0-7.8-3.5-7.8-7.8c0-4.3,3.5-7.8,7.8-7.8c4.3,0,7.8,3.5,7.8,7.8
	C653.3,373.5,649.8,377,645.5,377z"/>
</svg>
